# MagicaVoxel @ Ephtracy

# group
o 

# material
mtllib untitled.mtl
usemtl palette

# normals
vn -1 0 0
vn 1 0 0
vn 0 0 1
vn 0 0 -1
vn 0 -1 0
vn 0 1 0

# texcoords
vt 0.306641 0.5
vt 0.775391 0.5
vt 0.779297 0.5
vt 0.958984 0.5

# verts
v -2 0 1.4
v -2 0 1.1
v -2 0 0.5
v -2 0 0.2
v -2 0 -0.5
v -2 0 -2
v -2 0.9 -1
v -2 0.9 -1.1
v -2 0.9 -1.2
v -2 0.9 -1.3
v -2 0.9 -1.4
v -2 0.9 -1.5
v -2 0.9 -1.6
v -2 0.9 -1.7
v -2 0.9 -1.8
v -2 0.9 -1.9
v -2 1.8 -1.9
v -2 1.8 -2
v -2 2.2 -1.1
v -2 2.2 -1.2
v -2 2.2 -1.3
v -2 2.2 -1.4
v -2 2.2 -1.5
v -2 2.2 -1.6
v -2 2.2 -1.7
v -2 2.2 -1.8
v -2 2.6 1.4
v -2 2.6 1.1
v -2 2.6 0.5
v -2 2.6 0.2
v -2 2.6 -0.5
v -2 2.6 -1
v -1.8 0 2
v -1.8 0 1.4
v -1.8 0 1.1
v -1.8 0 0.5
v -1.8 0 0.2
v -1.8 0 -0.5
v -1.8 2.6 2
v -1.8 2.6 1.4
v -1.8 2.6 1.1
v -1.8 2.6 0.5
v -1.8 2.6 0.2
v -1.8 2.6 -0.5
v -1 2.5 1.9
v -1 2.5 1.5
v -1 2.5 1.2
v -1 2.5 0.6
v -1 2.5 0.2
v -1 2.5 -0.4
v -1 2.6 1.9
v -1 2.6 1.5
v -1 2.6 1.2
v -1 2.6 0.6
v -1 2.6 0.2
v -1 2.6 -0.4
v -1 3.8 2
v -1 3.8 -1.1
v -1 4 2
v -1 4 -1.1
v -0.9 2.6 2
v -0.9 2.6 -1
v -0.9 3 2
v -0.9 3 0.5
v -0.9 3 0.4
v -0.9 3 -1
v -0.9 3.5 2
v -0.9 3.5 0.5
v -0.9 3.5 0.4
v -0.9 3.5 -1
v -0.9 3.8 2
v -0.9 3.8 -1
v -0.8 3 2
v -0.8 3 0.6
v -0.8 3 0.5
v -0.8 3 0.4
v -0.8 3 -0.9
v -0.8 3.4 2
v -0.8 3.4 0.6
v -0.8 3.5 2
v -0.8 3.5 0.5
v -0.8 3.5 0.4
v -0.8 3.5 -0.9
v -0.7 0.9 -1
v -0.7 0.9 -1.1
v -0.7 0.9 -1.2
v -0.7 0.9 -1.3
v -0.7 0.9 -1.4
v -0.7 0.9 -1.5
v -0.7 0.9 -1.6
v -0.7 0.9 -1.7
v -0.7 0.9 -1.8
v -0.7 0.9 -1.9
v -0.7 1.8 -1.8
v -0.7 1.8 -1.9
v -0.7 2.1 -1
v -0.7 2.1 -1.1
v -0.7 2.1 -1.2
v -0.7 2.1 -1.3
v -0.7 2.1 -1.4
v -0.7 2.1 -1.5
v -0.7 2.1 -1.6
v -0.7 2.1 -1.7
v -0.4 0 -1.9
v -0.4 0 -2
v -0.4 0.6 -1.9
v -0.4 0.6 -2
v 0.5 0.5 -1.8
v 0.5 0.5 -2
v 0.5 0.7 -1.8
v 0.5 0.7 -2
v 0.5 1.4 -1.8
v 0.5 1.4 -2
v 0.5 1.6 -1.8
v 0.5 1.6 -2
v 0.6 0 -1.8
v 0.6 0 -2
v 0.6 0.5 -1.8
v 0.6 0.5 -2
v 0.6 0.7 -1.8
v 0.6 0.7 -2
v 0.6 1.4 -1.8
v 0.6 1.4 -2
v 0.6 2.2 -0.9
v 0.6 2.2 -1
v 0.6 3 -0.9
v 0.6 3 -1
v 0.8 2 -1.1
v 0.8 2 -1.6
v 0.8 2.1 -1.1
v 0.8 2.1 -1.6
v 0.9 0 -1.9
v 0.9 0 -2
v 0.9 1.1 -1.9
v 0.9 1.1 -2
v 0.9 1.9 -1.7
v 0.9 1.9 -1.8
v 0.9 2.1 -1.7
v 0.9 2.1 -1.8
v 1.6 2.2 -0.9
v 1.6 2.2 -1
v 1.6 3 -0.9
v 1.6 3 -1
v 1.9 1.9 -1.7
v 1.9 1.9 -1.8
v 1.9 2 -1.1
v 1.9 2 -1.6
v 1.9 2.1 -1.1
v 1.9 2.1 -1.6
v 1.9 2.1 -1.7
v 1.9 2.1 -1.8
v -1.7 2.5 1.9
v -1.7 2.5 1.5
v -1.7 2.5 1.2
v -1.7 2.5 0.6
v -1.7 2.5 0.2
v -1.7 2.5 -0.4
v -1.7 2.6 1.9
v -1.7 2.6 1.5
v -1.7 2.6 1.2
v -1.7 2.6 0.6
v -1.7 2.6 0.2
v -1.7 2.6 -0.4
v -1.6 0 -1.9
v -1.6 0 -2
v -1.6 0.6 -1.9
v -1.6 0.6 -2
v -0.7 2.1 -1.1
v -0.7 2.1 -1.2
v -0.7 2.1 -1.3
v -0.7 2.1 -1.4
v -0.7 2.1 -1.5
v -0.7 2.1 -1.6
v -0.7 2.1 -1.7
v -0.7 2.1 -1.8
v -0.7 2.2 -1.1
v -0.7 2.2 -1.2
v -0.7 2.2 -1.3
v -0.7 2.2 -1.4
v -0.7 2.2 -1.5
v -0.7 2.2 -1.6
v -0.7 2.2 -1.7
v -0.7 2.2 -1.8
v -0.3 0 -1.8
v -0.3 0 -2
v -0.3 1.8 -1.8
v -0.3 1.8 -2
v -0.3 1.9 -1.7
v -0.3 1.9 -1.8
v -0.3 2 -1.1
v -0.3 2 -1.6
v -0.3 2.1 -1.1
v -0.3 2.1 -1.6
v -0.3 2.1 -1.7
v -0.3 2.1 -1.8
v -0.0999999 2.2 -0.9
v -0.0999999 2.2 -1
v -0.0999999 3 -0.9
v -0.0999999 3 -1
v 0.8 0 -1.9
v 0.8 0 -2
v 0.8 1.1 -1.9
v 0.8 1.1 -2
v 0.9 2 -1.1
v 0.9 2 -1.6
v 0.9 2.1 -1.1
v 0.9 2.1 -1.6
v 1 1.9 -1.7
v 1 1.9 -1.8
v 1 2.1 -1.7
v 1 2.1 -1.8
v 1.1 0 -1.8
v 1.1 0 -2
v 1.1 1.6 -1.8
v 1.1 1.6 -2
v 1.1 2.2 -0.9
v 1.1 2.2 -1
v 1.1 3 -0.9
v 1.1 3 -1
v 2 0 2
v 2 0 -1.8
v 2 2.1 -1
v 2 2.1 -1.8
v 2 3 0.4
v 2 3 -0.9
v 2 3 -1
v 2 3.5 0.4
v 2 3.5 -0.9
v 2 3.5 -1
v 2 3.8 2
v 2 3.8 -1
v 2 3.8 -1.1
v 2 4 2
v 2 4 -1.1
v -1.8 0 2
v -1.8 2.6 2
v -1 3.8 2
v -1 4 2
v -0.9 2.6 2
v -0.9 3 2
v -0.9 3.5 2
v -0.9 3.8 2
v -0.8 3 2
v -0.8 3.4 2
v -0.8 3.5 2
v -0.7 3 2
v -0.7 3.4 2
v 2 0 2
v 2 3.8 2
v 2 4 2
v -1.7 2.5 1.5
v -1.7 2.6 1.5
v -1 2.5 1.5
v -1 2.6 1.5
v -2 0 1.4
v -2 2.6 1.4
v -1.8 0 1.4
v -1.8 2.6 1.4
v -1.7 2.5 0.6
v -1.7 2.6 0.6
v -1 2.5 0.6
v -1 2.6 0.6
v -2 0 0.5
v -2 2.6 0.5
v -1.8 0 0.5
v -1.8 2.6 0.5
v -0.9 3 0.5
v -0.9 3.5 0.5
v -0.8 3 0.5
v -0.8 3.5 0.5
v -1.7 2.5 -0.4
v -1.7 2.6 -0.4
v -1 2.5 -0.4
v -1 2.6 -0.4
v -2 0 -0.5
v -2 2.6 -0.5
v -1.8 0 -0.5
v -1.8 2.6 -0.5
v -2 0.9 -1.1
v -2 2.2 -1.1
v -0.7 0.9 -1.1
v -0.7 2.1 -1.1
v -0.7 2.2 -1.1
v -2 0.9 -1.3
v -2 2.2 -1.3
v -0.7 0.9 -1.3
v -0.7 2.1 -1.3
v -0.7 2.2 -1.3
v -2 0.9 -1.5
v -2 2.2 -1.5
v -0.7 0.9 -1.5
v -0.7 2.1 -1.5
v -0.7 2.2 -1.5
v -0.3 2 -1.6
v -0.3 2.1 -1.6
v 0.8 2 -1.6
v 0.8 2.1 -1.6
v 0.9 2 -1.6
v 0.9 2.1 -1.6
v 1.9 2 -1.6
v 1.9 2.1 -1.6
v -2 0.9 -1.7
v -2 2.2 -1.7
v -0.7 0.9 -1.7
v -0.7 2.1 -1.7
v -0.7 2.2 -1.7
v -2 0.9 -1.9
v -2 1.8 -1.9
v -0.7 0.9 -1.9
v -0.7 1.8 -1.9
v -1.7 2.5 1.9
v -1.7 2.6 1.9
v -1 2.5 1.9
v -1 2.6 1.9
v -1.7 2.5 1.2
v -1.7 2.6 1.2
v -1 2.5 1.2
v -1 2.6 1.2
v -2 0 1.1
v -2 2.6 1.1
v -1.8 0 1.1
v -1.8 2.6 1.1
v -0.9 3 0.4
v -0.9 3.5 0.4
v -0.8 3 0.4
v -0.8 3.5 0.4
v -2 0 0.2
v -2 2.6 0.2
v -1.8 0 0.2
v -1.8 2.6 0.2
v -1.7 2.5 0.2
v -1.7 2.6 0.2
v -1 2.5 0.2
v -1 2.6 0.2
v -0.8 3 -0.9
v -0.8 3.5 -0.9
v -0.0999999 2.2 -0.9
v -0.0999999 3 -0.9
v 0.6 2.2 -0.9
v 0.6 3 -0.9
v 1.1 2.2 -0.9
v 1.1 3 -0.9
v 1.6 2.2 -0.9
v 1.6 3 -0.9
v 2 3 -0.9
v 2 3.5 -0.9
v -2 0.9 -1
v -2 2.6 -1
v -0.9 2.6 -1
v -0.9 3 -1
v -0.9 3.5 -1
v -0.9 3.8 -1
v -0.7 0.9 -1
v -0.7 2.1 -1
v -0.0999999 2.2 -1
v -0.0999999 3 -1
v 0.6 2.2 -1
v 0.6 3 -1
v 1.1 2.2 -1
v 1.1 3 -1
v 1.6 2.2 -1
v 1.6 3 -1
v 2 2.1 -1
v 2 3 -1
v 2 3.5 -1
v 2 3.8 -1
v -1 3.8 -1.1
v -1 4 -1.1
v -0.3 2 -1.1
v -0.3 2.1 -1.1
v 0.8 2 -1.1
v 0.8 2.1 -1.1
v 0.9 2 -1.1
v 0.9 2.1 -1.1
v 1.9 2 -1.1
v 1.9 2.1 -1.1
v 2 3.8 -1.1
v 2 4 -1.1
v -2 0.9 -1.2
v -2 2.2 -1.2
v -0.7 0.9 -1.2
v -0.7 2.1 -1.2
v -0.7 2.2 -1.2
v -2 0.9 -1.4
v -2 2.2 -1.4
v -0.7 0.9 -1.4
v -0.7 2.1 -1.4
v -0.7 2.2 -1.4
v -2 0.9 -1.6
v -2 2.2 -1.6
v -0.7 0.9 -1.6
v -0.7 2.1 -1.6
v -0.7 2.2 -1.6
v -0.3 1.9 -1.7
v -0.3 2.1 -1.7
v 0.9 1.9 -1.7
v 0.9 2.1 -1.7
v 1 1.9 -1.7
v 1 2.1 -1.7
v 1.9 1.9 -1.7
v 1.9 2.1 -1.7
v -2 0.9 -1.8
v -2 2.2 -1.8
v -0.7 0.9 -1.8
v -0.7 1.8 -1.8
v -0.7 2.1 -1.8
v -0.7 2.2 -1.8
v -0.3 0 -1.8
v -0.3 1.8 -1.8
v -0.3 1.9 -1.8
v -0.3 2.1 -1.8
v 0.5 0.5 -1.8
v 0.5 0.7 -1.8
v 0.5 1.4 -1.8
v 0.5 1.6 -1.8
v 0.6 0 -1.8
v 0.6 0.5 -1.8
v 0.6 0.7 -1.8
v 0.6 1.4 -1.8
v 0.9 1.9 -1.8
v 0.9 2.1 -1.8
v 1 1.9 -1.8
v 1 2.1 -1.8
v 1.1 0 -1.8
v 1.1 1.6 -1.8
v 1.9 1.9 -1.8
v 1.9 2.1 -1.8
v 2 0 -1.8
v 2 2.1 -1.8
v -1.6 0 -1.9
v -1.6 0.6 -1.9
v -0.4 0 -1.9
v -0.4 0.6 -1.9
v 0.8 0 -1.9
v 0.8 1.1 -1.9
v 0.9 0 -1.9
v 0.9 1.1 -1.9
v -2 0 -2
v -2 1.8 -2
v -1.6 0 -2
v -1.6 0.6 -2
v -0.4 0 -2
v -0.4 0.6 -2
v -0.3 0 -2
v -0.3 1.8 -2
v 0.5 0.5 -2
v 0.5 0.7 -2
v 0.5 1.4 -2
v 0.5 1.6 -2
v 0.6 0 -2
v 0.6 0.5 -2
v 0.6 0.7 -2
v 0.6 1.4 -2
v 0.8 0 -2
v 0.8 1.1 -2
v 0.9 0 -2
v 0.9 1.1 -2
v 1.1 0 -2
v 1.1 1.6 -2
v -1.8 0 2
v 2 0 2
v -2 0 1.4
v -1.8 0 1.4
v -2 0 1.1
v -1.8 0 1.1
v -2 0 0.5
v -1.8 0 0.5
v -2 0 0.2
v -1.8 0 0.2
v -2 0 -0.5
v -1.8 0 -0.5
v -0.3 0 -1.8
v 0.6 0 -1.8
v 1.1 0 -1.8
v 2 0 -1.8
v -1.6 0 -1.9
v -0.4 0 -1.9
v 0.8 0 -1.9
v 0.9 0 -1.9
v -2 0 -2
v -1.6 0 -2
v -0.4 0 -2
v -0.3 0 -2
v 0.6 0 -2
v 0.8 0 -2
v 0.9 0 -2
v 1.1 0 -2
v 0.5 0.5 -1.8
v 0.6 0.5 -1.8
v 0.5 0.5 -2
v 0.6 0.5 -2
v -1.6 0.6 -1.9
v -0.4 0.6 -1.9
v -1.6 0.6 -2
v -0.4 0.6 -2
v 0.8 1.1 -1.9
v 0.9 1.1 -1.9
v 0.8 1.1 -2
v 0.9 1.1 -2
v 0.5 1.4 -1.8
v 0.6 1.4 -1.8
v 0.5 1.4 -2
v 0.6 1.4 -2
v -0.9 3.5 2
v -0.8 3.5 2
v -0.9 3.5 0.5
v -0.8 3.5 0.5
v -0.9 3.5 0.4
v -0.8 3.5 0.4
v -0.8 3.5 -0.9
v 2 3.5 -0.9
v -0.9 3.5 -1
v 2 3.5 -1
v -1 3.8 2
v -0.9 3.8 2
v -0.9 3.8 -1
v 2 3.8 -1
v -1 3.8 -1.1
v 2 3.8 -1.1
v 0.5 0.7 -1.8
v 0.6 0.7 -1.8
v 0.5 0.7 -2
v 0.6 0.7 -2
v -2 0.9 -1
v -0.7 0.9 -1
v -2 0.9 -1.1
v -0.7 0.9 -1.1
v -2 0.9 -1.2
v -0.7 0.9 -1.2
v -2 0.9 -1.3
v -0.7 0.9 -1.3
v -2 0.9 -1.4
v -0.7 0.9 -1.4
v -2 0.9 -1.5
v -0.7 0.9 -1.5
v -2 0.9 -1.6
v -0.7 0.9 -1.6
v -2 0.9 -1.7
v -0.7 0.9 -1.7
v -2 0.9 -1.8
v -0.7 0.9 -1.8
v -2 0.9 -1.9
v -0.7 0.9 -1.9
v 0.5 1.6 -1.8
v 1.1 1.6 -1.8
v 0.5 1.6 -2
v 1.1 1.6 -2
v -0.7 1.8 -1.8
v -0.3 1.8 -1.8
v -2 1.8 -1.9
v -0.7 1.8 -1.9
v -2 1.8 -2
v -0.3 1.8 -2
v -0.3 1.9 -1.7
v 0.9 1.9 -1.7
v 1 1.9 -1.7
v 1.9 1.9 -1.7
v -0.3 1.9 -1.8
v 0.9 1.9 -1.8
v 1 1.9 -1.8
v 1.9 1.9 -1.8
v -0.3 2 -1.1
v 0.8 2 -1.1
v 0.9 2 -1.1
v 1.9 2 -1.1
v -0.3 2 -1.6
v 0.8 2 -1.6
v 0.9 2 -1.6
v 1.9 2 -1.6
v -0.7 2.1 -1
v 2 2.1 -1
v -0.7 2.1 -1.1
v -0.3 2.1 -1.1
v 0.8 2.1 -1.1
v 0.9 2.1 -1.1
v 1.9 2.1 -1.1
v -0.7 2.1 -1.2
v -0.7 2.1 -1.3
v -0.7 2.1 -1.4
v -0.7 2.1 -1.5
v -0.7 2.1 -1.6
v -0.3 2.1 -1.6
v 0.8 2.1 -1.6
v 0.9 2.1 -1.6
v 1.9 2.1 -1.6
v -0.7 2.1 -1.7
v -0.3 2.1 -1.7
v 0.9 2.1 -1.7
v 1 2.1 -1.7
v 1.9 2.1 -1.7
v -0.7 2.1 -1.8
v -0.3 2.1 -1.8
v 0.9 2.1 -1.8
v 1 2.1 -1.8
v 1.9 2.1 -1.8
v 2 2.1 -1.8
v -0.0999999 2.2 -0.9
v 0.6 2.2 -0.9
v 1.1 2.2 -0.9
v 1.6 2.2 -0.9
v -0.0999999 2.2 -1
v 0.6 2.2 -1
v 1.1 2.2 -1
v 1.6 2.2 -1
v -2 2.2 -1.1
v -0.7 2.2 -1.1
v -2 2.2 -1.2
v -0.7 2.2 -1.2
v -2 2.2 -1.3
v -0.7 2.2 -1.3
v -2 2.2 -1.4
v -0.7 2.2 -1.4
v -2 2.2 -1.5
v -0.7 2.2 -1.5
v -2 2.2 -1.6
v -0.7 2.2 -1.6
v -2 2.2 -1.7
v -0.7 2.2 -1.7
v -2 2.2 -1.8
v -0.7 2.2 -1.8
v -1.7 2.5 1.9
v -1 2.5 1.9
v -1.7 2.5 1.5
v -1 2.5 1.5
v -1.7 2.5 1.2
v -1 2.5 1.2
v -1.7 2.5 0.6
v -1 2.5 0.6
v -1.7 2.5 0.2
v -1 2.5 0.2
v -1.7 2.5 -0.4
v -1 2.5 -0.4
v -1.8 2.6 2
v -0.9 2.6 2
v -1.7 2.6 1.9
v -1 2.6 1.9
v -1.7 2.6 1.5
v -1 2.6 1.5
v -2 2.6 1.4
v -1.8 2.6 1.4
v -1.7 2.6 1.2
v -1 2.6 1.2
v -2 2.6 1.1
v -1.8 2.6 1.1
v -1.7 2.6 0.6
v -1 2.6 0.6
v -2 2.6 0.5
v -1.8 2.6 0.5
v -2 2.6 0.2
v -1.8 2.6 0.2
v -1.7 2.6 0.2
v -1 2.6 0.2
v -1.7 2.6 -0.4
v -1 2.6 -0.4
v -2 2.6 -0.5
v -1.8 2.6 -0.5
v -2 2.6 -1
v -0.9 2.6 -1
v -0.9 3 2
v -0.8 3 2
v -0.8 3 0.6
v -0.9 3 0.5
v -0.8 3 0.5
v -0.9 3 0.4
v -0.8 3 0.4
v -0.8 3 -0.9
v -0.0999999 3 -0.9
v 0.6 3 -0.9
v 1.1 3 -0.9
v 1.6 3 -0.9
v 2 3 -0.9
v -0.9 3 -1
v -0.0999999 3 -1
v 0.6 3 -1
v 1.1 3 -1
v 1.6 3 -1
v 2 3 -1
v -1 4 2
v 2 4 2
v -1 4 -1.1
v 2 4 -1.1

# faces
f 7/1/1 6/1/1 5/1/1
f 8/1/1 6/1/1 7/1/1
f 9/1/1 6/1/1 8/1/1
f 10/1/1 6/1/1 9/1/1
f 11/1/1 6/1/1 10/1/1
f 12/1/1 6/1/1 11/1/1
f 13/1/1 6/1/1 12/1/1
f 14/1/1 6/1/1 13/1/1
f 15/1/1 6/1/1 14/1/1
f 16/1/1 6/1/1 15/1/1
f 17/1/1 6/1/1 16/1/1
f 18/1/1 6/1/1 17/1/1
f 19/1/1 9/1/1 8/1/1
f 20/1/1 9/1/1 19/1/1
f 21/1/1 11/1/1 10/1/1
f 22/1/1 11/1/1 21/1/1
f 23/1/1 13/1/1 12/1/1
f 24/1/1 13/1/1 23/1/1
f 25/1/1 15/1/1 14/1/1
f 26/1/1 15/1/1 25/1/1
f 27/1/1 2/1/1 1/1/1
f 28/1/1 2/1/1 27/1/1
f 29/1/1 4/1/1 3/1/1
f 30/1/1 4/1/1 29/1/1
f 31/1/1 7/1/1 5/1/1
f 32/1/1 7/1/1 31/1/1
f 39/1/1 34/1/1 33/1/1
f 40/1/1 34/1/1 39/1/1
f 41/1/1 36/1/1 35/1/1
f 42/1/1 36/1/1 41/1/1
f 43/1/1 38/1/1 37/1/1
f 44/1/1 38/1/1 43/1/1
f 51/1/1 46/1/1 45/1/1
f 52/1/1 46/1/1 51/1/1
f 53/1/1 48/1/1 47/1/1
f 54/1/1 48/1/1 53/1/1
f 55/1/1 50/1/1 49/1/1
f 56/1/1 50/1/1 55/1/1
f 59/4/1 58/4/1 57/4/1
f 60/4/1 58/4/1 59/4/1
f 63/1/1 62/1/1 61/1/1
f 64/1/1 62/1/1 63/1/1
f 65/1/1 62/1/1 64/1/1
f 66/1/1 62/1/1 65/1/1
f 68/1/1 65/1/1 64/1/1
f 69/1/1 65/1/1 68/1/1
f 71/1/1 68/1/1 67/1/1
f 71/1/1 70/1/1 69/1/1
f 71/1/1 69/1/1 68/1/1
f 72/1/1 70/1/1 71/1/1
f 78/2/1 74/2/1 73/2/1
f 79/1/1 75/1/1 74/1/1
f 79/2/1 74/2/1 78/2/1
f 80/1/1 79/1/1 78/1/1
f 81/1/1 75/1/1 79/1/1
f 81/1/1 79/1/1 80/1/1
f 82/3/1 77/3/1 76/3/1
f 83/3/1 77/3/1 82/3/1
f 94/1/1 93/1/1 92/1/1
f 95/1/1 93/1/1 94/1/1
f 96/1/1 85/1/1 84/1/1
f 97/1/1 85/1/1 96/1/1
f 98/1/1 87/1/1 86/1/1
f 99/1/1 87/1/1 98/1/1
f 100/1/1 89/1/1 88/1/1
f 101/1/1 89/1/1 100/1/1
f 102/1/1 91/1/1 90/1/1
f 103/1/1 91/1/1 102/1/1
f 106/1/1 105/1/1 104/1/1
f 107/1/1 105/1/1 106/1/1
f 110/1/1 109/1/1 108/1/1
f 111/1/1 109/1/1 110/1/1
f 114/1/1 113/1/1 112/1/1
f 115/1/1 113/1/1 114/1/1
f 118/1/1 117/1/1 116/1/1
f 119/1/1 117/1/1 118/1/1
f 122/1/1 121/1/1 120/1/1
f 123/1/1 121/1/1 122/1/1
f 126/1/1 125/1/1 124/1/1
f 127/1/1 125/1/1 126/1/1
f 130/1/1 129/1/1 128/1/1
f 131/1/1 129/1/1 130/1/1
f 134/1/1 133/1/1 132/1/1
f 135/1/1 133/1/1 134/1/1
f 138/1/1 137/1/1 136/1/1
f 139/1/1 137/1/1 138/1/1
f 142/1/1 141/1/1 140/1/1
f 143/1/1 141/1/1 142/1/1
f 148/1/1 147/1/1 146/1/1
f 149/1/1 147/1/1 148/1/1
f 150/1/1 145/1/1 144/1/1
f 151/1/1 145/1/1 150/1/1
f 152/1/2 153/1/2 158/1/2
f 158/1/2 153/1/2 159/1/2
f 154/1/2 155/1/2 160/1/2
f 160/1/2 155/1/2 161/1/2
f 156/1/2 157/1/2 162/1/2
f 162/1/2 157/1/2 163/1/2
f 164/1/2 165/1/2 166/1/2
f 166/1/2 165/1/2 167/1/2
f 168/1/2 169/1/2 176/1/2
f 176/1/2 169/1/2 177/1/2
f 170/1/2 171/1/2 178/1/2
f 178/1/2 171/1/2 179/1/2
f 172/1/2 173/1/2 180/1/2
f 180/1/2 173/1/2 181/1/2
f 174/1/2 175/1/2 182/1/2
f 182/1/2 175/1/2 183/1/2
f 184/1/2 185/1/2 186/1/2
f 186/1/2 185/1/2 187/1/2
f 190/1/2 191/1/2 192/1/2
f 192/1/2 191/1/2 193/1/2
f 188/1/2 189/1/2 194/1/2
f 194/1/2 189/1/2 195/1/2
f 196/1/2 197/1/2 198/1/2
f 198/1/2 197/1/2 199/1/2
f 200/1/2 201/1/2 202/1/2
f 202/1/2 201/1/2 203/1/2
f 204/1/2 205/1/2 206/1/2
f 206/1/2 205/1/2 207/1/2
f 208/1/2 209/1/2 210/1/2
f 210/1/2 209/1/2 211/1/2
f 212/1/2 213/1/2 214/1/2
f 214/1/2 213/1/2 215/1/2
f 216/1/2 217/1/2 218/1/2
f 218/1/2 217/1/2 219/1/2
f 220/1/2 221/1/2 222/1/2
f 222/1/2 221/1/2 223/1/2
f 220/1/2 222/1/2 224/1/2
f 224/1/2 222/1/2 225/1/2
f 225/1/2 222/1/2 226/1/2
f 220/1/2 224/1/2 227/1/2
f 224/3/2 225/3/2 227/3/2
f 227/3/2 225/3/2 228/3/2
f 220/1/2 227/1/2 230/1/2
f 228/1/2 229/1/2 230/1/2
f 227/1/2 228/1/2 230/1/2
f 230/1/2 229/1/2 231/1/2
f 230/4/2 231/4/2 233/4/2
f 231/4/2 232/4/2 233/4/2
f 233/4/2 232/4/2 234/4/2
f 239/1/3 236/1/3 235/1/3
f 242/4/3 238/4/3 237/4/3
f 243/1/3 240/1/3 239/1/3
f 245/1/3 242/1/3 241/1/3
f 246/2/3 244/2/3 243/2/3
f 246/1/3 243/1/3 239/1/3
f 247/1/3 245/1/3 244/1/3
f 247/2/3 244/2/3 246/2/3
f 248/1/3 246/1/3 239/1/3
f 248/1/3 239/1/3 235/1/3
f 248/1/3 247/1/3 246/1/3
f 249/1/3 245/1/3 247/1/3
f 249/1/3 247/1/3 248/1/3
f 249/4/3 238/4/3 242/4/3
f 249/1/3 242/1/3 245/1/3
f 250/4/3 238/4/3 249/4/3
f 253/1/3 252/1/3 251/1/3
f 254/1/3 252/1/3 253/1/3
f 257/1/3 256/1/3 255/1/3
f 258/1/3 256/1/3 257/1/3
f 261/1/3 260/1/3 259/1/3
f 262/1/3 260/1/3 261/1/3
f 265/1/3 264/1/3 263/1/3
f 266/1/3 264/1/3 265/1/3
f 269/1/3 268/1/3 267/1/3
f 270/1/3 268/1/3 269/1/3
f 273/1/3 272/1/3 271/1/3
f 274/1/3 272/1/3 273/1/3
f 277/1/3 276/1/3 275/1/3
f 278/1/3 276/1/3 277/1/3
f 281/1/3 280/1/3 279/1/3
f 282/1/3 280/1/3 281/1/3
f 283/1/3 280/1/3 282/1/3
f 286/1/3 285/1/3 284/1/3
f 287/1/3 285/1/3 286/1/3
f 288/1/3 285/1/3 287/1/3
f 291/1/3 290/1/3 289/1/3
f 292/1/3 290/1/3 291/1/3
f 293/1/3 290/1/3 292/1/3
f 296/1/3 295/1/3 294/1/3
f 297/1/3 295/1/3 296/1/3
f 300/1/3 299/1/3 298/1/3
f 301/1/3 299/1/3 300/1/3
f 304/1/3 303/1/3 302/1/3
f 305/1/3 303/1/3 304/1/3
f 306/1/3 303/1/3 305/1/3
f 309/1/3 308/1/3 307/1/3
f 310/1/3 308/1/3 309/1/3
f 311/1/4 312/1/4 313/1/4
f 313/1/4 312/1/4 314/1/4
f 315/1/4 316/1/4 317/1/4
f 317/1/4 316/1/4 318/1/4
f 319/1/4 320/1/4 321/1/4
f 321/1/4 320/1/4 322/1/4
f 323/1/4 324/1/4 325/1/4
f 325/1/4 324/1/4 326/1/4
f 327/1/4 328/1/4 329/1/4
f 329/1/4 328/1/4 330/1/4
f 331/1/4 332/1/4 333/1/4
f 333/1/4 332/1/4 334/1/4
f 335/3/4 336/3/4 338/3/4
f 337/1/4 338/1/4 339/1/4
f 338/3/4 336/3/4 340/3/4
f 339/1/4 338/1/4 340/1/4
f 340/3/4 336/3/4 342/3/4
f 341/1/4 342/1/4 343/1/4
f 342/3/4 336/3/4 344/3/4
f 343/1/4 342/1/4 344/1/4
f 344/3/4 336/3/4 345/3/4
f 345/3/4 336/3/4 346/3/4
f 347/1/4 348/1/4 349/1/4
f 347/1/4 349/1/4 353/1/4
f 349/1/4 350/1/4 353/1/4
f 353/1/4 350/1/4 354/1/4
f 354/1/4 350/1/4 355/1/4
f 355/1/4 350/1/4 356/1/4
f 354/1/4 355/1/4 357/1/4
f 354/1/4 357/1/4 359/1/4
f 357/1/4 358/1/4 359/1/4
f 359/1/4 358/1/4 360/1/4
f 354/1/4 359/1/4 361/1/4
f 354/1/4 361/1/4 363/1/4
f 361/1/4 362/1/4 363/1/4
f 363/1/4 362/1/4 364/1/4
f 351/1/4 352/1/4 365/1/4
f 365/1/4 352/1/4 366/1/4
f 369/1/4 370/1/4 371/1/4
f 371/1/4 370/1/4 372/1/4
f 373/1/4 374/1/4 375/1/4
f 375/1/4 374/1/4 376/1/4
f 367/4/4 368/4/4 377/4/4
f 377/4/4 368/4/4 378/4/4
f 379/1/4 380/1/4 381/1/4
f 381/1/4 380/1/4 382/1/4
f 382/1/4 380/1/4 383/1/4
f 384/1/4 385/1/4 386/1/4
f 386/1/4 385/1/4 387/1/4
f 387/1/4 385/1/4 388/1/4
f 389/1/4 390/1/4 391/1/4
f 391/1/4 390/1/4 392/1/4
f 392/1/4 390/1/4 393/1/4
f 394/1/4 395/1/4 396/1/4
f 396/1/4 395/1/4 397/1/4
f 398/1/4 399/1/4 400/1/4
f 400/1/4 399/1/4 401/1/4
f 402/1/4 403/1/4 404/1/4
f 404/1/4 403/1/4 405/1/4
f 405/1/4 403/1/4 406/1/4
f 406/1/4 403/1/4 407/1/4
f 405/1/4 406/1/4 409/1/4
f 409/1/4 406/1/4 410/1/4
f 410/1/4 406/1/4 411/1/4
f 408/1/4 409/1/4 412/1/4
f 409/1/4 410/1/4 412/1/4
f 412/1/4 410/1/4 413/1/4
f 413/1/4 410/1/4 414/1/4
f 414/1/4 410/1/4 415/1/4
f 408/1/4 412/1/4 416/1/4
f 416/1/4 412/1/4 417/1/4
f 413/1/4 414/1/4 418/1/4
f 418/1/4 414/1/4 419/1/4
f 415/1/4 410/1/4 420/1/4
f 415/1/4 420/1/4 422/1/4
f 420/1/4 421/1/4 422/1/4
f 422/1/4 421/1/4 423/1/4
f 415/1/4 422/1/4 425/1/4
f 425/1/4 422/1/4 426/1/4
f 424/1/4 425/1/4 426/1/4
f 424/1/4 426/1/4 428/1/4
f 426/1/4 427/1/4 428/1/4
f 428/1/4 427/1/4 429/1/4
f 430/1/4 431/1/4 432/1/4
f 432/1/4 431/1/4 433/1/4
f 434/1/4 435/1/4 436/1/4
f 436/1/4 435/1/4 437/1/4
f 438/1/4 439/1/4 440/1/4
f 440/1/4 439/1/4 441/1/4
f 441/1/4 439/1/4 443/1/4
f 442/1/4 443/1/4 444/1/4
f 443/1/4 439/1/4 445/1/4
f 444/1/4 443/1/4 445/1/4
f 446/1/4 447/1/4 451/1/4
f 451/1/4 447/1/4 452/1/4
f 448/1/4 449/1/4 453/1/4
f 451/1/4 452/1/4 454/1/4
f 452/1/4 453/1/4 454/1/4
f 450/1/4 451/1/4 454/1/4
f 454/1/4 453/1/4 455/1/4
f 455/1/4 453/1/4 457/1/4
f 456/1/4 457/1/4 458/1/4
f 453/1/4 449/1/4 459/1/4
f 458/1/4 457/1/4 459/1/4
f 457/1/4 453/1/4 459/1/4
f 463/1/5 461/1/5 460/1/5
f 464/1/5 463/1/5 462/1/5
f 465/1/5 461/1/5 463/1/5
f 465/1/5 463/1/5 464/1/5
f 467/1/5 461/1/5 465/1/5
f 468/1/5 467/1/5 466/1/5
f 469/1/5 461/1/5 467/1/5
f 469/1/5 467/1/5 468/1/5
f 471/1/5 461/1/5 469/1/5
f 472/1/5 461/1/5 471/1/5
f 472/1/5 471/1/5 470/1/5
f 473/1/5 461/1/5 472/1/5
f 474/1/5 461/1/5 473/1/5
f 475/1/5 461/1/5 474/1/5
f 476/1/5 472/1/5 470/1/5
f 477/1/5 472/1/5 476/1/5
f 478/1/5 474/1/5 473/1/5
f 479/1/5 474/1/5 478/1/5
f 480/1/5 476/1/5 470/1/5
f 481/1/5 476/1/5 480/1/5
f 482/1/5 472/1/5 477/1/5
f 483/1/5 472/1/5 482/1/5
f 484/1/5 478/1/5 473/1/5
f 485/1/5 478/1/5 484/1/5
f 486/1/5 474/1/5 479/1/5
f 487/1/5 474/1/5 486/1/5
f 490/1/5 489/1/5 488/1/5
f 491/1/5 489/1/5 490/1/5
f 494/1/5 493/1/5 492/1/5
f 495/1/5 493/1/5 494/1/5
f 498/1/5 497/1/5 496/1/5
f 499/1/5 497/1/5 498/1/5
f 502/1/5 501/1/5 500/1/5
f 503/1/5 501/1/5 502/1/5
f 506/1/5 505/1/5 504/1/5
f 507/1/5 505/1/5 506/1/5
f 510/1/5 509/1/5 508/1/5
f 512/1/5 510/1/5 508/1/5
f 512/1/5 511/1/5 510/1/5
f 513/1/5 511/1/5 512/1/5
f 516/4/5 515/4/5 514/4/5
f 518/4/5 516/4/5 514/4/5
f 518/4/5 517/4/5 516/4/5
f 519/4/5 517/4/5 518/4/5
f 520/1/6 521/1/6 522/1/6
f 522/1/6 521/1/6 523/1/6
f 524/1/6 525/1/6 526/1/6
f 526/1/6 525/1/6 527/1/6
f 528/1/6 529/1/6 530/1/6
f 530/1/6 529/1/6 531/1/6
f 532/1/6 533/1/6 534/1/6
f 534/1/6 533/1/6 535/1/6
f 536/1/6 537/1/6 538/1/6
f 538/1/6 537/1/6 539/1/6
f 540/1/6 541/1/6 542/1/6
f 542/1/6 541/1/6 543/1/6
f 544/1/6 545/1/6 546/1/6
f 546/1/6 545/1/6 547/1/6
f 548/1/6 549/1/6 551/1/6
f 550/1/6 551/1/6 552/1/6
f 551/1/6 549/1/6 553/1/6
f 552/1/6 551/1/6 553/1/6
f 554/1/6 555/1/6 558/1/6
f 558/1/6 555/1/6 559/1/6
f 556/1/6 557/1/6 560/1/6
f 560/1/6 557/1/6 561/1/6
f 562/1/6 563/1/6 566/1/6
f 566/1/6 563/1/6 567/1/6
f 564/1/6 565/1/6 568/1/6
f 568/1/6 565/1/6 569/1/6
f 570/1/6 571/1/6 572/1/6
f 572/1/6 571/1/6 573/1/6
f 573/1/6 571/1/6 574/1/6
f 574/1/6 571/1/6 575/1/6
f 575/1/6 571/1/6 576/1/6
f 572/1/6 573/1/6 577/1/6
f 577/1/6 573/1/6 578/1/6
f 578/1/6 573/1/6 579/1/6
f 579/1/6 573/1/6 580/1/6
f 580/1/6 573/1/6 581/1/6
f 581/1/6 573/1/6 582/1/6
f 574/1/6 575/1/6 583/1/6
f 583/1/6 575/1/6 584/1/6
f 576/1/6 571/1/6 585/1/6
f 583/1/6 584/1/6 586/1/6
f 584/1/6 585/1/6 586/1/6
f 581/1/6 582/1/6 586/1/6
f 582/1/6 583/1/6 586/1/6
f 586/1/6 585/1/6 587/1/6
f 587/1/6 585/1/6 588/1/6
f 588/1/6 585/1/6 589/1/6
f 585/1/6 571/1/6 590/1/6
f 589/1/6 585/1/6 590/1/6
f 586/1/6 587/1/6 591/1/6
f 591/1/6 587/1/6 592/1/6
f 588/1/6 589/1/6 593/1/6
f 593/1/6 589/1/6 594/1/6
f 590/1/6 571/1/6 595/1/6
f 595/1/6 571/1/6 596/1/6
f 597/1/6 598/1/6 601/1/6
f 601/1/6 598/1/6 602/1/6
f 599/1/6 600/1/6 603/1/6
f 603/1/6 600/1/6 604/1/6
f 605/1/6 606/1/6 607/1/6
f 607/1/6 606/1/6 608/1/6
f 609/1/6 610/1/6 611/1/6
f 611/1/6 610/1/6 612/1/6
f 613/1/6 614/1/6 615/1/6
f 615/1/6 614/1/6 616/1/6
f 617/1/6 618/1/6 619/1/6
f 619/1/6 618/1/6 620/1/6
f 621/1/6 622/1/6 623/1/6
f 623/1/6 622/1/6 624/1/6
f 625/1/6 626/1/6 627/1/6
f 627/1/6 626/1/6 628/1/6
f 629/1/6 630/1/6 631/1/6
f 631/1/6 630/1/6 632/1/6
f 633/1/6 634/1/6 635/1/6
f 635/1/6 634/1/6 636/1/6
f 633/1/6 635/1/6 637/1/6
f 636/1/6 634/1/6 638/1/6
f 633/1/6 637/1/6 640/1/6
f 637/1/6 638/1/6 640/1/6
f 640/1/6 638/1/6 641/1/6
f 639/1/6 640/1/6 641/1/6
f 638/1/6 634/1/6 642/1/6
f 641/1/6 638/1/6 642/1/6
f 639/1/6 641/1/6 643/1/6
f 643/1/6 641/1/6 644/1/6
f 644/1/6 641/1/6 645/1/6
f 642/1/6 634/1/6 646/1/6
f 644/1/6 645/1/6 648/1/6
f 645/1/6 646/1/6 648/1/6
f 647/1/6 648/1/6 649/1/6
f 648/1/6 646/1/6 650/1/6
f 649/1/6 648/1/6 650/1/6
f 650/1/6 646/1/6 651/1/6
f 646/1/6 634/1/6 652/1/6
f 651/1/6 646/1/6 652/1/6
f 650/1/6 651/1/6 653/1/6
f 652/1/6 634/1/6 654/1/6
f 650/1/6 653/1/6 656/1/6
f 653/1/6 654/1/6 656/1/6
f 655/1/6 656/1/6 657/1/6
f 654/1/6 634/1/6 658/1/6
f 657/1/6 656/1/6 658/1/6
f 656/1/6 654/1/6 658/1/6
f 659/1/6 660/1/6 661/1/6
f 659/1/6 661/1/6 662/1/6
f 662/1/6 661/1/6 663/1/6
f 664/1/6 665/1/6 666/1/6
f 664/1/6 666/1/6 672/1/6
f 666/1/6 667/1/6 672/1/6
f 672/1/6 667/1/6 673/1/6
f 668/1/6 669/1/6 674/1/6
f 674/1/6 669/1/6 675/1/6
f 670/1/6 671/1/6 676/1/6
f 676/1/6 671/1/6 677/1/6
f 678/4/6 679/4/6 680/4/6
f 680/4/6 679/4/6 681/4/6
