# MagicaVoxel @ Ephtracy

# group
o 

# material
mtllib bed.mtl
usemtl palette

# normals
vn -1 0 0
vn 1 0 0
vn 0 0 1
vn 0 0 -1
vn 0 -1 0
vn 0 1 0

# texcoords
vt 0.775391 0.5
vt 0.798828 0.5
vt 0.958984 0.5
vt 0.962891 0.5

# verts
v -0.2 0.4 0.5
v -0.2 0.4 -0.3
v -0.2 0.5 0.3
v -0.2 0.5 0.2
v -0.2 0.5 -0.2
v -0.2 0.6 0.5
v -0.2 0.6 0.3
v -0.2 0.6 0.2
v -0.2 0.6 -0.2
v -0.2 0.6 -0.3
v -0.1 0.6 0.4
v -0.1 0.6 0.3
v -0.1 0.7 0.4
v -0.1 0.7 0.3
v 0.1 0.6 0.4
v 0.1 0.6 0.3
v 0.1 0.7 0.4
v 0.1 0.7 0.3
v 0.2 0.4 0.5
v 0.2 0.4 -0.3
v 0.2 0.5 0.3
v 0.2 0.5 0.2
v 0.2 0.5 -0.2
v 0.2 0.6 0.5
v 0.2 0.6 0.3
v 0.2 0.6 0.2
v 0.2 0.6 -0.2
v 0.2 0.6 -0.3
v -0.2 0.4 0.5
v -0.2 0.6 0.5
v 0.2 0.4 0.5
v 0.2 0.6 0.5
v -0.1 0.6 0.4
v -0.1 0.7 0.4
v 0.1 0.6 0.4
v 0.1 0.7 0.4
v -0.1 0.6 0.3
v -0.1 0.7 0.3
v 0.1 0.6 0.3
v 0.1 0.7 0.3
v -0.2 0.4 -0.3
v -0.2 0.6 -0.3
v 0.2 0.4 -0.3
v 0.2 0.6 -0.3
v -0.2 0.4 0.5
v 0.2 0.4 0.5
v -0.2 0.4 -0.3
v 0.2 0.4 -0.3
v -0.2 0.6 0.5
v 0.2 0.6 0.5
v -0.1 0.6 0.4
v 0.1 0.6 0.4
v -0.2 0.6 0.3
v -0.1 0.6 0.3
v 0.1 0.6 0.3
v 0.2 0.6 0.3
v -0.2 0.6 0.2
v 0.2 0.6 0.2
v -0.2 0.6 -0.2
v 0.2 0.6 -0.2
v -0.2 0.6 -0.3
v 0.2 0.6 -0.3
v -0.1 0.7 0.4
v 0.1 0.7 0.4
v -0.1 0.7 0.3
v 0.1 0.7 0.3

# faces
f 3/3/1 2/3/1 1/3/1
f 4/3/1 2/3/1 3/3/1
f 5/3/1 2/3/1 4/3/1
f 6/3/1 3/3/1 1/3/1
f 7/2/1 4/2/1 3/2/1
f 7/3/1 3/3/1 6/3/1
f 8/1/1 5/1/1 4/1/1
f 8/2/1 4/2/1 7/2/1
f 9/3/1 2/3/1 5/3/1
f 9/1/1 5/1/1 8/1/1
f 10/3/1 2/3/1 9/3/1
f 13/4/1 12/4/1 11/4/1
f 14/4/1 12/4/1 13/4/1
f 15/4/2 16/4/2 17/4/2
f 17/4/2 16/4/2 18/4/2
f 19/3/2 20/3/2 21/3/2
f 21/3/2 20/3/2 22/3/2
f 22/3/2 20/3/2 23/3/2
f 19/3/2 21/3/2 24/3/2
f 21/2/2 22/2/2 25/2/2
f 24/3/2 21/3/2 25/3/2
f 22/1/2 23/1/2 26/1/2
f 25/2/2 22/2/2 26/2/2
f 23/3/2 20/3/2 27/3/2
f 26/1/2 23/1/2 27/1/2
f 27/3/2 20/3/2 28/3/2
f 31/3/3 30/3/3 29/3/3
f 32/3/3 30/3/3 31/3/3
f 35/4/3 34/4/3 33/4/3
f 36/4/3 34/4/3 35/4/3
f 37/4/4 38/4/4 39/4/4
f 39/4/4 38/4/4 40/4/4
f 41/3/4 42/3/4 43/3/4
f 43/3/4 42/3/4 44/3/4
f 47/3/5 46/3/5 45/3/5
f 48/3/5 46/3/5 47/3/5
f 49/3/6 50/3/6 51/3/6
f 51/3/6 50/3/6 52/3/6
f 49/3/6 51/3/6 53/3/6
f 53/3/6 51/3/6 54/3/6
f 52/3/6 50/3/6 55/3/6
f 55/3/6 50/3/6 56/3/6
f 53/2/6 54/2/6 57/2/6
f 54/2/6 55/2/6 57/2/6
f 55/2/6 56/2/6 57/2/6
f 57/2/6 56/2/6 58/2/6
f 57/1/6 58/1/6 59/1/6
f 59/1/6 58/1/6 60/1/6
f 59/3/6 60/3/6 61/3/6
f 61/3/6 60/3/6 62/3/6
f 63/4/6 64/4/6 65/4/6
f 65/4/6 64/4/6 66/4/6
