# MagicaVoxel @ Ephtracy

# group
o 

# material
mtllib whiteroom.mtl
usemtl palette

# normals
vn -1 0 0
vn 1 0 0
vn 0 0 1
vn 0 0 -1
vn 0 -1 0
vn 0 1 0

# texcoords
vt 0.857422 0.5
vt 0.962891 0.5

# verts
v -1 0 1
v -1 0 -0.5
v -1 0 -0.9
v -1 0 -1
v -1 0.1 1
v -1 0.1 -0.5
v -1 0.1 -0.9
v -1 1 -0.9
v -1 1 -1
v -0.9 0.1 -0.8
v -0.9 0.1 -0.9
v -0.9 0.2 -0.8
v -0.9 0.2 -0.9
v -0.8 0.2 -0.8
v -0.8 0.2 -0.9
v -0.8 0.3 -0.8
v -0.8 0.3 -0.9
v -0.7 0.3 -0.8
v -0.7 0.3 -0.9
v -0.7 0.4 -0.8
v -0.7 0.4 -0.9
v -0.6 0.4 -0.8
v -0.6 0.4 -0.9
v -0.6 0.5 -0.8
v -0.6 0.5 -0.9
v -0.5 0.5 -0.8
v -0.5 0.5 -0.9
v -0.5 0.6 -0.8
v -0.5 0.6 -0.9
v 0.8 0.1 0.9
v 0.8 0.1 0.8
v 0.8 0.1 0.7
v 0.8 0.1 0.6
v 0.8 0.1 0.4
v 0.8 0.1 0.2
v 0.8 0.1 -0.1
v 0.8 0.1 -0.6
v 0.8 0.1 -0.7
v 0.8 0.1 -0.8
v 0.8 0.2 0.9
v 0.8 0.2 0.8
v 0.8 0.2 0.7
v 0.8 0.2 0.6
v 0.8 0.2 0.4
v 0.8 0.2 0.3
v 0.8 0.2 -0.2
v 0.8 0.2 -0.6
v 0.8 0.2 -0.8
v 0.8 0.3 0.8
v 0.8 0.3 0.7
v 0.8 0.3 0.5
v 0.8 0.3 0.3
v 0.8 0.3 0.2
v 0.8 0.3 0.1
v 0.8 0.3 -0.1
v 0.8 0.3 -0.2
v 0.8 0.3 -0.3
v 0.8 0.3 -0.5
v 0.8 0.3 -0.8
v 0.8 0.4 0.7
v 0.8 0.4 0.6
v 0.8 0.4 0.5
v 0.8 0.4 0.3
v 0.8 0.4 0.2
v 0.8 0.4 0.1
v 0.8 0.4 -0.3
v 0.8 0.4 -0.5
v 0.8 0.4 -0.7
v 0.8 0.5 0.6
v 0.8 0.5 0.5
v 0.8 0.5 -0.8
v 0.8 0.6 0.5
v 0.8 0.6 -0.8
v 0.9 0.1 1
v 0.9 0.1 0.9
v 0.9 0.2 0.9
v 0.9 0.2 0.8
v 0.9 0.3 0.8
v 0.9 0.3 0.7
v 0.9 0.4 0.7
v 0.9 0.4 0.6
v 0.9 0.5 0.6
v 0.9 0.5 0.5
v 0.9 0.6 0.5
v 0.9 0.6 -0.9
v 0.9 1 1
v 0.9 1 -0.9
v 1 0 1
v 1 0 -1
v 1 1 1
v 1 1 -1
v -1 0 1
v -1 0.1 1
v 0.9 0.1 1
v 0.9 1 1
v 1 0 1
v 1 1 1
v 0.8 0.1 0.9
v 0.8 0.2 0.9
v 0.9 0.1 0.9
v 0.9 0.2 0.9
v 0.8 0.2 0.8
v 0.8 0.3 0.8
v 0.9 0.2 0.8
v 0.9 0.3 0.8
v 0.8 0.3 0.7
v 0.8 0.4 0.7
v 0.9 0.3 0.7
v 0.9 0.4 0.7
v 0.8 0.4 0.6
v 0.8 0.5 0.6
v 0.9 0.4 0.6
v 0.9 0.5 0.6
v 0.8 0.5 0.5
v 0.8 0.6 0.5
v 0.9 0.5 0.5
v 0.9 0.6 0.5
v -0.9 0.1 -0.8
v -0.9 0.2 -0.8
v -0.8 0.2 -0.8
v -0.8 0.3 -0.8
v -0.7 0.3 -0.8
v -0.7 0.4 -0.8
v -0.6 0.3 -0.8
v -0.6 0.4 -0.8
v -0.6 0.5 -0.8
v -0.5 0.5 -0.8
v -0.5 0.6 -0.8
v -0.4 0.1 -0.8
v -0.4 0.2 -0.8
v -0.4 0.3 -0.8
v -0.4 0.4 -0.8
v -0.2 0.1 -0.8
v -0.2 0.2 -0.8
v -0.2 0.5 -0.8
v -0.2 0.6 -0.8
v -0.1 0.5 -0.8
v -0.1 0.6 -0.8
v 0 0.5 -0.8
v 0 0.6 -0.8
v 0.2 0.5 -0.8
v 0.2 0.6 -0.8
v 0.3 0.4 -0.8
v 0.3 0.5 -0.8
v 0.5 0.1 -0.8
v 0.5 0.2 -0.8
v 0.6 0.4 -0.8
v 0.6 0.5 -0.8
v 0.7 0.1 -0.8
v 0.7 0.2 -0.8
v 0.7 0.3 -0.8
v 0.8 0.1 -0.8
v 0.8 0.2 -0.8
v 0.8 0.3 -0.8
v 0.8 0.5 -0.8
v 0.8 0.6 -0.8
v -1 0.1 -0.9
v -1 1 -0.9
v -0.9 0.1 -0.9
v -0.9 0.2 -0.9
v -0.8 0.2 -0.9
v -0.8 0.3 -0.9
v -0.7 0.3 -0.9
v -0.7 0.4 -0.9
v -0.6 0.4 -0.9
v -0.6 0.5 -0.9
v -0.5 0.5 -0.9
v -0.5 0.6 -0.9
v -0.2 0.6 -0.9
v -0.1 0.6 -0.9
v 0 0.6 -0.9
v 0.2 0.6 -0.9
v 0.9 0.6 -0.9
v 0.9 1 -0.9
v -1 0 -1
v -1 1 -1
v 1 0 -1
v 1 1 -1
v -1 0 1
v 1 0 1
v -0.9 0 -0.4
v -0.7 0 -0.4
v -1 0 -0.5
v -0.9 0 -0.5
v -0.6 0 -0.5
v -0.5 0 -0.5
v -0.4 0 -0.5
v -0.3 0 -0.5
v -0.1 0 -0.5
v 0 0 -0.5
v 0.2 0 -0.5
v 0.4 0 -0.5
v -0.7 0 -0.6
v -0.6 0 -0.6
v -0.5 0 -0.6
v -0.4 0 -0.6
v -0.1 0 -0.6
v 0 0 -0.6
v 0.1 0 -0.6
v -0.4 0 -0.7
v -0.3 0 -0.7
v -0.2 0 -0.7
v 0 0 -0.7
v 0.1 0 -0.7
v 0.2 0 -0.7
v 0.4 0 -0.7
v 0.5 0 -0.7
v -0.8 0 -0.8
v -0.4 0 -0.8
v -1 0 -0.9
v -0.8 0 -0.9
v -0.2 0 -0.9
v 0.5 0 -0.9
v -1 0 -1
v 1 0 -1
v -1 0.1 1
v 0.9 0.1 1
v 0.8 0.1 0.9
v 0.9 0.1 0.9
v 0.8 0.1 0.8
v 0.8 0.1 0.7
v 0.8 0.1 0.6
v 0.8 0.1 0.4
v 0.8 0.1 0.2
v 0.8 0.1 -0.1
v -0.9 0.1 -0.4
v -0.7 0.1 -0.4
v -1 0.1 -0.5
v -0.9 0.1 -0.5
v -0.6 0.1 -0.5
v -0.5 0.1 -0.5
v -0.4 0.1 -0.5
v -0.3 0.1 -0.5
v -0.1 0.1 -0.5
v 0 0.1 -0.5
v 0.2 0.1 -0.5
v 0.4 0.1 -0.5
v -0.7 0.1 -0.6
v -0.6 0.1 -0.6
v -0.5 0.1 -0.6
v -0.4 0.1 -0.6
v -0.1 0.1 -0.6
v 0 0.1 -0.6
v 0.1 0.1 -0.6
v 0.8 0.1 -0.6
v -0.4 0.1 -0.7
v -0.3 0.1 -0.7
v -0.2 0.1 -0.7
v 0 0.1 -0.7
v 0.1 0.1 -0.7
v 0.2 0.1 -0.7
v 0.4 0.1 -0.7
v 0.5 0.1 -0.7
v 0.8 0.1 -0.7
v -0.9 0.1 -0.8
v -0.4 0.1 -0.8
v -0.2 0.1 -0.8
v 0.5 0.1 -0.8
v 0.7 0.1 -0.8
v 0.8 0.1 -0.8
v -1 0.1 -0.9
v -0.9 0.1 -0.9
v 0.8 0.2 0.9
v 0.9 0.2 0.9
v 0.8 0.2 0.8
v 0.9 0.2 0.8
v -0.9 0.2 -0.8
v -0.8 0.2 -0.8
v -0.9 0.2 -0.9
v -0.8 0.2 -0.9
v 0.8 0.3 0.8
v 0.9 0.3 0.8
v 0.8 0.3 0.7
v 0.9 0.3 0.7
v -0.8 0.3 -0.8
v -0.7 0.3 -0.8
v -0.8 0.3 -0.9
v -0.7 0.3 -0.9
v 0.8 0.4 0.7
v 0.9 0.4 0.7
v 0.8 0.4 0.6
v 0.9 0.4 0.6
v -0.7 0.4 -0.8
v -0.6 0.4 -0.8
v -0.7 0.4 -0.9
v -0.6 0.4 -0.9
v 0.8 0.5 0.6
v 0.9 0.5 0.6
v 0.8 0.5 0.5
v 0.9 0.5 0.5
v -0.6 0.5 -0.8
v -0.5 0.5 -0.8
v -0.6 0.5 -0.9
v -0.5 0.5 -0.9
v 0.8 0.6 0.5
v 0.9 0.6 0.5
v -0.5 0.6 -0.8
v -0.2 0.6 -0.8
v -0.1 0.6 -0.8
v 0 0.6 -0.8
v 0.2 0.6 -0.8
v 0.8 0.6 -0.8
v -0.5 0.6 -0.9
v -0.2 0.6 -0.9
v -0.1 0.6 -0.9
v 0 0.6 -0.9
v 0.2 0.6 -0.9
v 0.9 0.6 -0.9
v 0.9 1 1
v 1 1 1
v -1 1 -0.9
v 0.9 1 -0.9
v -1 1 -1
v 1 1 -1

# faces
f 5/2/1 2/2/1 1/2/1
f 6/1/1 3/1/1 2/1/1
f 6/2/1 2/2/1 5/2/1
f 7/2/1 4/2/1 3/2/1
f 7/1/1 3/1/1 6/1/1
f 8/2/1 4/2/1 7/2/1
f 9/2/1 4/2/1 8/2/1
f 12/1/1 11/1/1 10/1/1
f 13/1/1 11/1/1 12/1/1
f 16/1/1 15/1/1 14/1/1
f 17/1/1 15/1/1 16/1/1
f 20/1/1 19/1/1 18/1/1
f 21/1/1 19/1/1 20/1/1
f 24/1/1 23/1/1 22/1/1
f 25/1/1 23/1/1 24/1/1
f 28/2/1 27/2/1 26/2/1
f 29/2/1 27/2/1 28/2/1
f 40/2/1 31/2/1 30/2/1
f 41/1/1 32/1/1 31/1/1
f 41/2/1 31/2/1 40/2/1
f 42/2/1 33/2/1 32/2/1
f 42/1/1 32/1/1 41/1/1
f 43/1/1 34/1/1 33/1/1
f 43/2/1 33/2/1 42/2/1
f 44/2/1 35/2/1 34/2/1
f 44/1/1 34/1/1 43/1/1
f 45/2/1 35/2/1 44/2/1
f 46/2/1 37/2/1 36/2/1
f 47/1/1 38/1/1 37/1/1
f 47/2/1 37/2/1 46/2/1
f 48/2/1 39/2/1 38/2/1
f 49/2/1 42/2/1 41/2/1
f 50/1/1 43/1/1 42/1/1
f 50/2/1 42/2/1 49/2/1
f 50/1/1 44/1/1 43/1/1
f 50/1/1 45/1/1 44/1/1
f 51/1/1 45/1/1 50/1/1
f 52/2/1 35/2/1 45/2/1
f 52/1/1 45/1/1 51/1/1
f 53/1/1 36/1/1 35/1/1
f 53/2/1 35/2/1 52/2/1
f 54/1/1 36/1/1 53/1/1
f 55/2/1 46/2/1 36/2/1
f 55/1/1 36/1/1 54/1/1
f 56/1/1 47/1/1 46/1/1
f 56/2/1 46/2/1 55/2/1
f 57/1/1 47/1/1 56/1/1
f 58/1/1 47/1/1 57/1/1
f 59/2/1 48/2/1 38/2/1
f 60/1/1 51/1/1 50/1/1
f 61/1/1 51/1/1 60/1/1
f 62/2/1 52/2/1 51/2/1
f 62/1/1 51/1/1 61/1/1
f 63/1/1 53/1/1 52/1/1
f 63/2/1 52/2/1 62/2/1
f 64/2/1 54/2/1 53/2/1
f 64/1/1 53/1/1 63/1/1
f 65/1/1 55/1/1 54/1/1
f 65/2/1 54/2/1 64/2/1
f 65/1/1 56/1/1 55/1/1
f 65/1/1 57/1/1 56/1/1
f 66/2/1 58/2/1 57/2/1
f 66/1/1 57/1/1 65/1/1
f 67/1/1 47/1/1 58/1/1
f 67/2/1 58/2/1 66/2/1
f 68/1/1 38/1/1 47/1/1
f 68/1/1 47/1/1 67/1/1
f 68/2/1 59/2/1 38/2/1
f 69/2/1 67/2/1 66/2/1
f 69/2/1 66/2/1 65/2/1
f 69/2/1 68/2/1 67/2/1
f 69/2/1 62/2/1 61/2/1
f 69/2/1 65/2/1 64/2/1
f 69/2/1 64/2/1 63/2/1
f 69/2/1 63/2/1 62/2/1
f 70/2/1 68/2/1 69/2/1
f 71/2/1 59/2/1 68/2/1
f 71/2/1 68/2/1 70/2/1
f 72/2/1 71/2/1 70/2/1
f 73/2/1 71/2/1 72/2/1
f 76/2/1 75/2/1 74/2/1
f 78/2/1 77/2/1 76/2/1
f 80/2/1 79/2/1 78/2/1
f 82/2/1 81/2/1 80/2/1
f 84/2/1 83/2/1 82/2/1
f 86/2/1 76/2/1 74/2/1
f 86/2/1 85/2/1 84/2/1
f 86/2/1 84/2/1 82/2/1
f 86/2/1 82/2/1 80/2/1
f 86/2/1 80/2/1 78/2/1
f 86/2/1 78/2/1 76/2/1
f 87/2/1 85/2/1 86/2/1
f 88/2/2 89/2/2 90/2/2
f 90/2/2 89/2/2 91/2/2
f 94/2/3 93/2/3 92/2/3
f 96/2/3 94/2/3 92/2/3
f 96/2/3 95/2/3 94/2/3
f 97/2/3 95/2/3 96/2/3
f 100/2/3 99/2/3 98/2/3
f 101/2/3 99/2/3 100/2/3
f 104/2/3 103/2/3 102/2/3
f 105/2/3 103/2/3 104/2/3
f 108/1/3 107/1/3 106/1/3
f 109/1/3 107/1/3 108/1/3
f 112/2/3 111/2/3 110/2/3
f 113/2/3 111/2/3 112/2/3
f 116/2/3 115/2/3 114/2/3
f 117/2/3 115/2/3 116/2/3
f 120/1/3 119/1/3 118/1/3
f 122/1/3 121/1/3 120/1/3
f 124/1/3 122/1/3 120/1/3
f 124/1/3 123/1/3 122/1/3
f 125/1/3 123/1/3 124/1/3
f 127/1/3 126/1/3 125/1/3
f 129/1/3 120/1/3 118/1/3
f 129/1/3 124/1/3 120/1/3
f 130/1/3 124/1/3 129/1/3
f 131/2/3 125/2/3 124/2/3
f 131/1/3 124/1/3 130/1/3
f 132/1/3 127/1/3 125/1/3
f 132/2/3 125/2/3 131/2/3
f 133/2/3 130/2/3 129/2/3
f 134/1/3 131/1/3 130/1/3
f 134/2/3 130/2/3 133/2/3
f 134/1/3 132/1/3 131/1/3
f 135/2/3 128/2/3 127/2/3
f 135/1/3 132/1/3 134/1/3
f 135/1/3 127/1/3 132/1/3
f 136/2/3 128/2/3 135/2/3
f 137/1/3 134/1/3 133/1/3
f 137/1/3 135/1/3 134/1/3
f 137/1/3 136/1/3 135/1/3
f 138/1/3 136/1/3 137/1/3
f 139/1/3 137/1/3 133/1/3
f 139/2/3 138/2/3 137/2/3
f 140/2/3 138/2/3 139/2/3
f 141/1/3 139/1/3 133/1/3
f 141/1/3 140/1/3 139/1/3
f 142/1/3 140/1/3 141/1/3
f 143/1/3 141/1/3 133/1/3
f 144/2/3 142/2/3 141/2/3
f 144/1/3 141/1/3 143/1/3
f 145/1/3 143/1/3 133/1/3
f 146/1/3 143/1/3 145/1/3
f 147/2/3 144/2/3 143/2/3
f 147/1/3 143/1/3 146/1/3
f 148/2/3 142/2/3 144/2/3
f 148/2/3 144/2/3 147/2/3
f 149/2/3 146/2/3 145/2/3
f 150/1/3 147/1/3 146/1/3
f 150/2/3 146/2/3 149/2/3
f 150/1/3 148/1/3 147/1/3
f 151/1/3 148/1/3 150/1/3
f 152/1/3 150/1/3 149/1/3
f 153/2/3 151/2/3 150/2/3
f 153/1/3 150/1/3 152/1/3
f 154/1/3 148/1/3 151/1/3
f 154/2/3 151/2/3 153/2/3
f 155/2/3 142/2/3 148/2/3
f 155/1/3 148/1/3 154/1/3
f 156/2/3 142/2/3 155/2/3
f 159/2/3 158/2/3 157/2/3
f 160/2/3 158/2/3 159/2/3
f 161/2/3 158/2/3 160/2/3
f 162/2/3 158/2/3 161/2/3
f 163/2/3 158/2/3 162/2/3
f 164/2/3 158/2/3 163/2/3
f 165/2/3 158/2/3 164/2/3
f 166/2/3 158/2/3 165/2/3
f 167/2/3 158/2/3 166/2/3
f 168/2/3 158/2/3 167/2/3
f 169/2/3 158/2/3 168/2/3
f 170/2/3 158/2/3 169/2/3
f 171/2/3 158/2/3 170/2/3
f 172/2/3 158/2/3 171/2/3
f 173/2/3 158/2/3 172/2/3
f 174/2/3 158/2/3 173/2/3
f 175/2/4 176/2/4 177/2/4
f 177/2/4 176/2/4 178/2/4
f 181/2/5 180/2/5 179/2/5
f 182/2/5 180/2/5 181/2/5
f 183/2/5 181/2/5 179/2/5
f 184/1/5 182/1/5 181/1/5
f 184/2/5 181/2/5 183/2/5
f 185/2/5 180/2/5 182/2/5
f 186/2/5 180/2/5 185/2/5
f 187/2/5 180/2/5 186/2/5
f 188/2/5 180/2/5 187/2/5
f 189/2/5 180/2/5 188/2/5
f 190/2/5 180/2/5 189/2/5
f 191/2/5 180/2/5 190/2/5
f 192/2/5 180/2/5 191/2/5
f 193/1/5 182/1/5 184/1/5
f 193/1/5 184/1/5 183/1/5
f 193/2/5 185/2/5 182/2/5
f 194/1/5 186/1/5 185/1/5
f 194/2/5 185/2/5 193/2/5
f 195/2/5 187/2/5 186/2/5
f 195/1/5 186/1/5 194/1/5
f 196/1/5 188/1/5 187/1/5
f 196/2/5 187/2/5 195/2/5
f 197/2/5 189/2/5 188/2/5
f 197/1/5 190/1/5 189/1/5
f 198/2/5 191/2/5 190/2/5
f 198/1/5 190/1/5 197/1/5
f 199/2/5 191/2/5 198/2/5
f 200/1/5 194/1/5 193/1/5
f 200/1/5 195/1/5 194/1/5
f 200/1/5 188/1/5 196/1/5
f 200/1/5 196/1/5 195/1/5
f 201/2/5 197/2/5 188/2/5
f 201/1/5 188/1/5 200/1/5
f 201/2/5 198/2/5 197/2/5
f 202/2/5 198/2/5 201/2/5
f 203/1/5 199/1/5 198/1/5
f 203/2/5 198/2/5 202/2/5
f 204/2/5 191/2/5 199/2/5
f 204/1/5 199/1/5 203/1/5
f 205/1/5 192/1/5 191/1/5
f 205/2/5 191/2/5 204/2/5
f 206/2/5 180/2/5 192/2/5
f 206/1/5 192/1/5 205/1/5
f 207/2/5 180/2/5 206/2/5
f 208/1/5 200/1/5 193/1/5
f 208/1/5 193/1/5 183/1/5
f 209/2/5 202/2/5 201/2/5
f 209/1/5 200/1/5 208/1/5
f 209/2/5 201/2/5 200/2/5
f 210/1/5 208/1/5 183/1/5
f 211/2/5 209/2/5 208/2/5
f 211/1/5 208/1/5 210/1/5
f 212/1/5 205/1/5 204/1/5
f 212/2/5 209/2/5 211/2/5
f 212/1/5 204/1/5 203/1/5
f 212/1/5 207/1/5 206/1/5
f 212/1/5 206/1/5 205/1/5
f 212/2/5 202/2/5 209/2/5
f 212/1/5 203/1/5 202/1/5
f 213/2/5 180/2/5 207/2/5
f 213/1/5 207/1/5 212/1/5
f 214/2/5 211/2/5 210/2/5
f 214/2/5 212/2/5 211/2/5
f 214/2/5 213/2/5 212/2/5
f 215/2/5 180/2/5 213/2/5
f 215/2/5 213/2/5 214/2/5
f 216/2/6 217/2/6 218/2/6
f 218/2/6 217/2/6 219/2/6
f 216/2/6 218/2/6 220/2/6
f 216/2/6 220/2/6 221/2/6
f 216/2/6 221/2/6 222/2/6
f 216/2/6 222/2/6 223/2/6
f 216/2/6 223/2/6 224/2/6
f 216/2/6 224/2/6 225/2/6
f 216/2/6 225/2/6 226/2/6
f 226/2/6 225/2/6 227/2/6
f 216/2/6 226/2/6 228/2/6
f 226/1/6 227/1/6 229/1/6
f 228/2/6 226/2/6 229/2/6
f 227/2/6 225/2/6 230/2/6
f 230/2/6 225/2/6 231/2/6
f 231/2/6 225/2/6 232/2/6
f 232/2/6 225/2/6 233/2/6
f 233/2/6 225/2/6 234/2/6
f 234/2/6 225/2/6 235/2/6
f 235/2/6 225/2/6 236/2/6
f 236/2/6 225/2/6 237/2/6
f 229/1/6 227/1/6 238/1/6
f 228/1/6 229/1/6 238/1/6
f 227/2/6 230/2/6 238/2/6
f 230/1/6 231/1/6 239/1/6
f 238/2/6 230/2/6 239/2/6
f 231/2/6 232/2/6 240/2/6
f 239/1/6 231/1/6 240/1/6
f 232/1/6 233/1/6 241/1/6
f 240/2/6 232/2/6 241/2/6
f 233/2/6 234/2/6 242/2/6
f 234/1/6 235/1/6 242/1/6
f 235/2/6 236/2/6 243/2/6
f 242/1/6 235/1/6 243/1/6
f 243/2/6 236/2/6 244/2/6
f 237/2/6 225/2/6 245/2/6
f 238/1/6 239/1/6 246/1/6
f 239/1/6 240/1/6 246/1/6
f 241/1/6 233/1/6 246/1/6
f 240/1/6 241/1/6 246/1/6
f 233/2/6 242/2/6 247/2/6
f 246/1/6 233/1/6 247/1/6
f 242/2/6 243/2/6 247/2/6
f 247/2/6 243/2/6 248/2/6
f 243/1/6 244/1/6 249/1/6
f 248/2/6 243/2/6 249/2/6
f 244/2/6 236/2/6 250/2/6
f 249/1/6 244/1/6 250/1/6
f 236/1/6 237/1/6 251/1/6
f 250/2/6 236/2/6 251/2/6
f 237/2/6 245/2/6 252/2/6
f 251/1/6 237/1/6 252/1/6
f 252/2/6 245/2/6 253/2/6
f 253/2/6 245/2/6 254/2/6
f 238/1/6 246/1/6 255/1/6
f 228/1/6 238/1/6 255/1/6
f 247/2/6 248/2/6 256/2/6
f 255/1/6 246/1/6 256/1/6
f 246/2/6 247/2/6 256/2/6
f 248/1/6 249/1/6 257/1/6
f 256/2/6 248/2/6 257/2/6
f 249/1/6 250/1/6 257/1/6
f 251/1/6 252/1/6 257/1/6
f 252/1/6 253/1/6 257/1/6
f 250/1/6 251/1/6 257/1/6
f 253/2/6 254/2/6 258/2/6
f 257/1/6 253/1/6 258/1/6
f 258/2/6 254/2/6 259/2/6
f 259/2/6 254/2/6 260/2/6
f 228/1/6 255/1/6 261/1/6
f 261/1/6 255/1/6 262/1/6
f 263/2/6 264/2/6 265/2/6
f 265/2/6 264/2/6 266/2/6
f 267/1/6 268/1/6 269/1/6
f 269/1/6 268/1/6 270/1/6
f 271/2/6 272/2/6 273/2/6
f 273/2/6 272/2/6 274/2/6
f 275/1/6 276/1/6 277/1/6
f 277/1/6 276/1/6 278/1/6
f 279/1/6 280/1/6 281/1/6
f 281/1/6 280/1/6 282/1/6
f 283/1/6 284/1/6 285/1/6
f 285/1/6 284/1/6 286/1/6
f 287/2/6 288/2/6 289/2/6
f 289/2/6 288/2/6 290/2/6
f 291/1/6 292/1/6 293/1/6
f 293/1/6 292/1/6 294/1/6
f 295/2/6 296/2/6 302/2/6
f 297/2/6 298/2/6 303/2/6
f 298/1/6 299/1/6 304/1/6
f 303/2/6 298/2/6 304/2/6
f 299/2/6 300/2/6 305/2/6
f 304/1/6 299/1/6 305/1/6
f 300/1/6 301/1/6 306/1/6
f 305/2/6 300/2/6 306/2/6
f 301/2/6 302/2/6 307/2/6
f 306/1/6 301/1/6 307/1/6
f 302/2/6 296/2/6 308/2/6
f 307/2/6 302/2/6 308/2/6
f 309/2/6 310/2/6 312/2/6
f 311/2/6 312/2/6 313/2/6
f 312/2/6 310/2/6 314/2/6
f 313/2/6 312/2/6 314/2/6
